<svg width="470" height="242" viewBox="0 0 470 242" fill="none" xmlns="http://www.w3.org/2000/svg">
<g clip-path="url(#clip0_856_25)">
<path d="M7.9504 102.119C-1.39575 91.1785 -2.10075 74.4994 3.35566 61.381C14.7164 35.1567 44.9262 18.5956 72.1078 16.114C109.989 12.6035 147.347 39.3397 149.393 79.9395C150.987 103.501 137.007 125.839 117.73 137.7C100.391 148.658 64.1913 161.237 53.6897 135.369C47.5063 117.22 66.3528 105.84 81.6621 105.378C87.6227 105.208 93.625 106.395 99.1402 108.683C114.307 114.999 126.439 128.903 130.317 145.293C134.701 164.672 122.464 184.126 105.505 191.78C92.3717 198.351 68.8007 201.802 63.4496 183.369C60.4509 169.58 71.8973 158.238 84.744 158.03C95.8404 157.275 106.251 163.498 114.993 169.116C120.814 172.815 126.554 176.423 132.828 178.486C145.288 182.608 160.255 178.691 169.699 168.424C161.129 179.846 145.719 185.303 131.923 181.858C118.481 178.649 107.48 168.474 94.4133 165.407C85.8235 163.382 75.5007 164.953 71.8508 173.633C68.1863 182.681 74.874 188.44 83.6155 187.956C89.5566 187.815 95.9089 185.695 101.275 182.935C127.115 168.727 125.607 140.468 102.702 124.203C95.341 119.167 86.5775 116.306 78.0122 118.158C71.7358 119.365 62.4116 124.035 65.1166 131.063C69.9757 141.712 84.6289 137.7 94.0975 135.176C125.389 125.861 147.731 95.1305 134.297 61.8703C124.804 37.2294 97.8746 23.0144 72.5852 24.3318C47.5699 25.4007 18.5744 39.4426 6.43514 62.8414C0.383886 74.936 -0.0126774 90.6766 7.94795 102.121L7.9504 102.119Z" fill="white"/>
<path d="M103.605 60.4927C94.565 62.0384 84.7268 62.2843 77.7576 68.6328C77.7185 68.6654 77.5912 68.7808 77.552 68.8134C78.585 67.7721 77.8996 65.5966 76.328 65.4485C84.1002 64.761 95.1721 69.4884 98.7387 78.587C91.9825 73.3301 84.6632 70.9438 76.541 71.6514C72.9377 72.1708 70.5142 67.5764 72.8422 64.781C80.6046 56.4503 93.8111 56.7088 103.603 60.4927H103.605Z" fill="white"/>
<path d="M46.4929 79.39C50.0809 79.39 52.9896 75.977 52.9896 71.7668C52.9896 67.5567 50.0809 64.1437 46.4929 64.1437C42.9048 64.1437 39.9961 67.5567 39.9961 71.7668C39.9961 75.977 42.9048 79.39 46.4929 79.39Z" fill="white"/>
<path d="M234.875 76.4342H211.409C209.348 76.4342 207.676 74.7203 207.676 72.6076V72.5197C207.676 70.4069 209.348 68.6931 211.409 68.6931H248.382C250.443 68.6931 252.115 70.4069 252.115 72.5197V75.1469C252.115 75.9825 251.848 76.7955 251.356 77.4605L221.945 117.182C220.079 119.701 221.832 123.322 224.919 123.322H248.385C250.446 123.322 252.118 125.036 252.118 127.149C252.118 129.262 250.446 130.975 248.385 130.975H211.411C209.35 130.975 207.678 129.262 207.678 127.149V124.609C207.678 123.774 207.945 122.961 208.437 122.296L237.849 82.5743C239.714 80.055 237.961 76.4342 234.875 76.4342Z" fill="white"/>
<path d="M278.673 85.598C292.386 85.598 301.499 94.8496 301.499 108.731V127.149C301.499 129.262 299.827 130.975 297.766 130.975H296.985C294.924 130.975 293.252 129.262 293.252 127.149V122.168L292.383 122.256V123.056C292.383 126.614 287.177 131.864 276.932 131.864C264.433 131.864 255.841 122.878 255.841 109.265C255.841 94.8521 264.866 85.598 278.668 85.598H278.673ZM278.411 123.944C289.174 123.944 293.167 117.717 293.167 108.731C293.167 99.7452 287.612 93.5172 278.673 93.5172C269.733 93.5172 264.09 99.6574 264.09 108.731C264.09 117.804 269.471 123.944 278.411 123.944Z" fill="white"/>
<path d="M331.526 85.598C345.239 85.598 354.352 94.8496 354.352 108.731V127.149C354.352 129.262 352.68 130.975 350.619 130.975H349.838C347.777 130.975 346.105 129.262 346.105 127.149V122.168L345.239 122.256V123.056C345.239 126.614 340.03 131.864 329.788 131.864C317.288 131.864 308.696 122.878 308.696 109.265C308.696 94.8521 317.722 85.598 331.523 85.598H331.526ZM331.266 123.944C342.03 123.944 346.02 117.717 346.02 108.731C346.02 99.7452 340.465 93.5172 331.526 93.5172C322.586 93.5172 316.943 99.6574 316.943 108.731C316.943 117.804 322.326 123.944 331.264 123.944H331.266Z" fill="white"/>
<path d="M365.285 64.2467H366.066C368.127 64.2467 369.799 65.9605 369.799 68.0733V106.786C369.799 110.497 374.435 112.036 376.555 109.027L391.333 88.0746C392.036 87.0785 393.159 86.4913 394.359 86.4913H394.586C397.651 86.4913 399.411 90.0695 397.585 92.5963L389.345 103.993C388.317 105.416 388.376 107.378 389.487 108.733L402.572 124.687C404.613 127.176 402.887 130.975 399.715 130.975H399.475C398.378 130.975 397.335 130.481 396.628 129.623L385.867 116.602C384.31 114.72 381.448 114.816 380.016 116.801L370.917 129.422C370.215 130.398 369.099 130.975 367.916 130.975H365.287C363.226 130.975 361.554 129.262 361.554 127.149V68.0733C361.554 65.9605 363.226 64.2467 365.287 64.2467H365.285Z" fill="white"/>
<path d="M419.009 67.8048C422.047 67.8048 424.042 69.7621 424.042 72.7004C424.042 75.6387 422.047 77.5935 419.009 77.5935C415.971 77.5935 414.062 75.6362 414.062 72.7004C414.062 69.7646 416.057 67.8048 419.009 67.8048ZM418.662 86.4888H419.443C421.504 86.4888 423.176 88.2026 423.176 90.3154V127.149C423.176 129.262 421.504 130.975 419.443 130.975H418.662C416.601 130.975 414.929 129.262 414.929 127.149V90.3154C414.929 88.2026 416.601 86.4888 418.662 86.4888Z" fill="white"/>
<path d="M466.912 135.171L439.41 111.491V90.3129C439.41 88.2001 437.738 86.4863 435.677 86.4863H434.894C432.833 86.4863 431.161 88.2001 431.161 90.3129V110.781C431.161 125.106 437.256 131.778 450.737 131.856V123.889C442.796 123.433 439.41 119.709 439.41 111.489L466.912 135.171Z" fill="white"/>
<path d="M434.101 135.171L450.276 123.889V131.856C463.757 131.778 469.852 125.104 469.852 110.781V90.3129C469.852 88.2001 468.18 86.4863 466.119 86.4863H465.336C463.275 86.4863 461.603 88.2001 461.603 90.3129V111.491C461.603 119.709 458.217 123.433 450.276 123.892L434.101 135.171Z" fill="white"/>
<path d="M468.47 135.171C470.35 135.171 471.777 136.97 471.336 138.844C469.226 147.845 462.188 152.668 450.994 152.668C439.8 152.668 432.965 148.274 431.658 139.256C431.396 137.444 432.784 135.813 434.568 135.813H436.346C437.756 135.813 438.984 136.845 439.219 138.27C440.084 143.469 443.927 145.845 451.065 145.845C458.203 145.845 462.58 143.105 463.86 137.595C464.183 136.2 465.334 135.173 466.734 135.173H468.47V135.171Z" fill="white"/>
</g>
<defs>
<clipPath id="clip0_856_25">
<rect width="470" height="271" fill="white" transform="translate(0 -29)"/>
</clipPath>
</defs>
</svg>
