<?xml version="1.0" encoding="UTF-8"?>
<svg id="Layer_1" data-name="Layer 1" xmlns="http://www.w3.org/2000/svg" viewBox="0 0 892.4 929.35">
  <defs>
    <style>
      .cls-1 {
        fill: #0a0a60;
      }
    </style>
  </defs>
  <path class="cls-1" d="M42.2,442.6C-6.93,386.51-10.64,300.98,18.05,233.71,77.77,99.24,236.56,14.32,379.42,1.58c199.12-18,395.48,119.09,406.23,327.28,8.37,120.81-65.11,235.35-166.43,296.19-91.13,56.18-281.41,120.69-336.61-11.95-32.5-93.06,66.56-151.42,147.02-153.79,31.33-.88,62.88,5.2,91.87,16.94,79.72,32.39,143.49,103.68,163.87,187.73,23.04,99.37-41.28,199.13-130.41,238.37-69.03,33.7-192.92,51.39-221.05-43.12-15.76-70.7,44.41-128.86,111.93-129.94,58.33-3.87,113.05,28.04,158.99,56.85,30.6,18.96,60.76,37.47,93.75,48.05,65.5,21.14,144.16,1.05,193.8-51.59-45.04,58.57-126.04,86.55-198.56,68.89-70.65-16.46-128.48-68.64-197.16-84.36-45.16-10.38-99.41-2.33-118.6,42.18-19.26,46.39,15.89,75.93,61.83,73.45,31.22-.72,64.62-11.6,92.82-25.74,135.82-72.85,127.9-217.76,7.5-301.17-38.7-25.83-84.75-40.49-129.77-30.99-32.98,6.19-82,30.13-67.78,66.17,25.54,54.61,102.56,34.04,152.33,21.09,164.47-47.76,281.91-205.34,211.29-375.9-49.89-126.35-191.45-199.24-324.38-192.49C250.45,49.2,98.04,121.21,34.24,241.19,2.43,303.21.35,383.92,42.2,442.6h0Z"/>
  <path class="cls-1" d="M544.98,229.15c-47.52,7.93-99.23,9.19-135.86,41.74-.2.17-.87.75-1.07.92,5.43-5.34,1.83-16.5-6.43-17.26,40.86-3.52,99.04,20.72,117.8,67.37-35.51-26.95-73.99-39.19-116.68-35.57-18.94,2.67-31.67-20.89-19.44-35.23,40.81-42.72,110.22-41.39,161.69-21.99h0Z"/>
  <ellipse class="cls-1" cx="244.79" cy="286.97" rx="34.14" ry="39.09"/>
</svg>